<svg id="logo" xmlns="http://www.w3.org/2000/svg" xmlns:xlink="http://www.w3.org/1999/xlink" width="131.164" height="46.01" viewBox="0 0 131.164 46.01">
  <defs>
    <clipPath id="clip-path">
      <rect id="長方形_3" data-name="長方形 3" width="131.164" height="46.01" fill="none"/>
    </clipPath>
  </defs>
  <g id="グループ_1" data-name="グループ 1" clip-path="url(#clip-path)">
    <path id="パス_1" data-name="パス 1" d="M2.465,153.683v.19a1.629,1.629,0,0,0-.423.05.313.313,0,0,0-.224.313.882.882,0,0,0,.026.192c.018.058.043.144.073.241l1.459,3.8,1.066-2.831L3.974,154.4a.823.823,0,0,0-.41-.46,1.478,1.478,0,0,0-.489-.069v-.19h2.7v.19a2.292,2.292,0,0,0-.5.05.34.34,0,0,0-.214.348.507.507,0,0,0,.015.156q.019.062.1.278L6.63,158.5l1.265-3.431a2.786,2.786,0,0,0,.142-.524,1.222,1.222,0,0,0,.029-.206.4.4,0,0,0-.267-.393,1.232,1.232,0,0,0-.444-.069v-.19H9.36v.19a1.189,1.189,0,0,0-.4.12.9.9,0,0,0-.382.508l-1.063,3L7.1,158.665,6.463,160.5H6.3l-.452-1.172-1.161-3.1L3.134,160.5H2.983l-.75-2.108-.854-2.366a13.221,13.221,0,0,0-.726-1.8A.778.778,0,0,0,0,153.873v-.19Z" transform="translate(0 -116.542)" fill="#231815"/>
    <path id="パス_2" data-name="パス 2" d="M35.254,162.535a.844.844,0,0,1,.8.442,2.257,2.257,0,0,1,.184.738H34.182a1.991,1.991,0,0,1,.225-.671.929.929,0,0,1,.846-.509m.275-.335a1.846,1.846,0,0,0-1.523.72,2.606,2.606,0,0,0-.581,1.7,2.673,2.673,0,0,0,.5,1.613,1.654,1.654,0,0,0,1.432.7,1.86,1.86,0,0,0,1.357-.529,2.7,2.7,0,0,0,.749-1.159l-.171-.05a2.633,2.633,0,0,1-.648.76,1.36,1.36,0,0,1-.867.279,1.423,1.423,0,0,1-1.1-.529,2.721,2.721,0,0,1-.519-1.667h3.1a1.759,1.759,0,0,0-.517-1.36,1.74,1.74,0,0,0-1.217-.478" transform="translate(-25.346 -123.001)" fill="#231815"/>
    <path id="パス_3" data-name="パス 3" d="M65.074,157.963a3.388,3.388,0,0,0,.591,1.07,1.87,1.87,0,0,0,1.482.7,1.253,1.253,0,0,0,.826-.3,1.094,1.094,0,0,0,.35-.856,1.167,1.167,0,0,0-.359-.853,5.909,5.909,0,0,0-.977-.7l-.867-.533a2.684,2.684,0,0,1-.619-.5,1.523,1.523,0,0,1-.425-1.049,1.735,1.735,0,0,1,.5-1.27,1.848,1.848,0,0,1,1.359-.5,2.7,2.7,0,0,1,.84.161,3.428,3.428,0,0,0,.56.158.3.3,0,0,0,.255-.085.559.559,0,0,0,.113-.235h.187l.219,2.135h-.241a2.22,2.22,0,0,0-.787-1.351A1.829,1.829,0,0,0,67,153.566a1.115,1.115,0,0,0-.73.241.828.828,0,0,0-.311.679.977.977,0,0,0,.238.664,3.006,3.006,0,0,0,.739.586l.889.551a4.668,4.668,0,0,1,1.175.936,1.638,1.638,0,0,1,.327,1.02,1.687,1.687,0,0,1-.588,1.325,2.194,2.194,0,0,1-1.518.54,2.867,2.867,0,0,1-.972-.182,3.848,3.848,0,0,0-.584-.179.23.23,0,0,0-.232.118.859.859,0,0,0-.083.243h-.211l-.308-2.144Z" transform="translate(-49.165 -116.152)" fill="#231815"/>
    <path id="パス_4" data-name="パス 4" d="M87.085,162.411v3.149a1.285,1.285,0,0,0,.1.541.683.683,0,0,0,.669.367,1.126,1.126,0,0,0,.653-.217,1.874,1.874,0,0,0,.366-.337v-2.692c0-.257-.05-.423-.149-.488a.944.944,0,0,0-.591-.153v-.169h1.587v3.524a.6.6,0,0,0,.121.444.662.662,0,0,0,.508.109v.139l-.4.1c-.086.024-.225.064-.418.126-.085.032-.276.093-.556.211a.026.026,0,0,1-.029-.024.327.327,0,0,1,0-.058v-.81a3.337,3.337,0,0,1-.615.593,1.523,1.523,0,0,1-.888.3,1.292,1.292,0,0,1-.813-.31,1.215,1.215,0,0,1-.378-1v-2.571a.648.648,0,0,0-.168-.519.922.922,0,0,0-.457-.118v-.134Z" transform="translate(-64.933 -123.161)" fill="#231815"/>
    <path id="パス_5" data-name="パス 5" d="M107.7,165.807v-2.472a.574.574,0,0,1,.3-.436,1.087,1.087,0,0,1,.663-.23,1.186,1.186,0,0,1,.915.449,2.012,2.012,0,0,1,.4,1.351,2.461,2.461,0,0,1-.382,1.462,1.083,1.083,0,0,1-.913.529,1.054,1.054,0,0,1-.6-.158,1.013,1.013,0,0,1-.382-.495m-1.554,3.1h2.413v-.169a1.623,1.623,0,0,1-.7-.16c-.1-.078-.156-.276-.156-.613V166.35a1.333,1.333,0,0,0,.58.382,1.363,1.363,0,0,0,.477.073,1.8,1.8,0,0,0,1.483-.8,2.914,2.914,0,0,0,.588-1.776,2.34,2.34,0,0,0-.49-1.586,1.489,1.489,0,0,0-1.17-.575,1.779,1.779,0,0,0-.916.275,3.8,3.8,0,0,0-.575.485v-.658a.2.2,0,0,0-.011-.048.033.033,0,0,0-.035-.022c-.644.22-.971.335-.985.335l-.463.15v.171a1.188,1.188,0,0,0,.136-.024c.027,0,.069,0,.1,0a.435.435,0,0,1,.337.108.749.749,0,0,1,.1.476v4.706a.918.918,0,0,1-.129.529.827.827,0,0,1-.581.2Z" transform="translate(-80.494 -122.901)" fill="#231815"/>
    <path id="パス_6" data-name="パス 6" d="M128.433,165.807v-2.472a.582.582,0,0,1,.3-.436,1.065,1.065,0,0,1,.661-.23,1.183,1.183,0,0,1,.912.449,1.979,1.979,0,0,1,.39,1.351,2.463,2.463,0,0,1-.37,1.462,1.093,1.093,0,0,1-.913.529.959.959,0,0,1-.982-.653m-1.554,3.1h2.409v-.169a1.675,1.675,0,0,1-.7-.16c-.109-.078-.155-.276-.155-.613V166.35a1.376,1.376,0,0,0,.578.382,1.394,1.394,0,0,0,.478.073,1.8,1.8,0,0,0,1.49-.8,2.932,2.932,0,0,0,.586-1.776,2.341,2.341,0,0,0-.49-1.586,1.492,1.492,0,0,0-1.175-.575,1.738,1.738,0,0,0-.912.275,3.638,3.638,0,0,0-.573.485v-.658a.06.06,0,0,0-.019-.048c0-.019-.016-.022-.034-.022-.635.22-.963.335-.98.335l-.47.15v.171a.732.732,0,0,0,.137-.024c.027,0,.062,0,.1,0a.462.462,0,0,1,.343.108.833.833,0,0,1,.086.476v4.706a.912.912,0,0,1-.118.529.829.829,0,0,1-.584.2Z" transform="translate(-96.216 -122.901)" fill="#231815"/>
    <path id="パス_7" data-name="パス 7" d="M151.366,162.483a1.2,1.2,0,0,1,1.1.762,3.445,3.445,0,0,1,.382,1.6,2.558,2.558,0,0,1-.3,1.333.931.931,0,0,1-.857.5,1.211,1.211,0,0,1-1.106-.749,3.488,3.488,0,0,1-.391-1.643,2,2,0,0,1,.49-1.541,1.017,1.017,0,0,1,.68-.26m-2.089,2.052a2.457,2.457,0,0,0,.655,1.744,2.135,2.135,0,0,0,1.6.691,2.019,2.019,0,0,0,1.606-.725,2.516,2.516,0,0,0,.618-1.7,2.327,2.327,0,0,0-.636-1.709,2.191,2.191,0,0,0-1.621-.64,2.1,2.1,0,0,0-1.6.679,2.355,2.355,0,0,0-.623,1.656" transform="translate(-113.201 -123.001)" fill="#231815"/>
    <path id="パス_8" data-name="パス 8" d="M170.921,166.6a1.118,1.118,0,0,0,.6-.158.664.664,0,0,0,.149-.521v-2.194a1.825,1.825,0,0,0-.091-.7.333.333,0,0,0-.332-.207,1.055,1.055,0,0,0-.137.013,1.612,1.612,0,0,1-.169.029V162.7c.188-.07.382-.141.581-.208s.335-.115.412-.142c.163-.065.333-.129.508-.206.029,0,.042,0,.043.016a.482.482,0,0,1,.007.108v.832a3.75,3.75,0,0,1,.6-.7.864.864,0,0,1,.6-.246.536.536,0,0,1,.4.157.49.49,0,0,1,.15.386.527.527,0,0,1-.112.345.379.379,0,0,1-.3.14.541.541,0,0,1-.367-.171.5.5,0,0,0-.292-.169c-.118,0-.249.089-.415.27a.819.819,0,0,0-.238.57v2.2a.688.688,0,0,0,.192.57.968.968,0,0,0,.656.148v.171h-2.441Z" transform="translate(-129.614 -122.961)" fill="#231815"/>
    <path id="パス_9" data-name="パス 9" d="M190.462,158.461v.348h-1.014l-.008,2.829a1.788,1.788,0,0,0,.069.576.444.444,0,0,0,.464.334.606.606,0,0,0,.313-.083,1.418,1.418,0,0,0,.3-.271l.129.11-.1.152a1.594,1.594,0,0,1-.548.486,1.144,1.144,0,0,1-.551.152.778.778,0,0,1-.786-.516,2.154,2.154,0,0,1-.112-.782v-2.986h-.544a.114.114,0,0,1-.035-.032c-.013,0-.019-.011-.019-.037a.163.163,0,0,1,.029-.07c.013-.019.057-.053.136-.126a5.2,5.2,0,0,0,.485-.442c.107-.121.34-.426.709-.929.048,0,.069,0,.083.014s.006.03.006.07v1.2Z" transform="translate(-142.576 -119.188)" fill="#231815"/>
    <path id="パス_10" data-name="パス 10" d="M216.627,153.324a5.556,5.556,0,0,0,.635.163.507.507,0,0,0,.276-.077.439.439,0,0,0,.176-.243h.222l.1,2.246H217.8a3.139,3.139,0,0,0-.524-1.074,2.032,2.032,0,0,0-1.662-.774,2.116,2.116,0,0,0-1.729.834,3.668,3.668,0,0,0-.671,2.317,3.11,3.11,0,0,0,.7,2.152,2.242,2.242,0,0,0,1.785.808,2.944,2.944,0,0,0,1.439-.366,4.73,4.73,0,0,0,.826-.64l.2.182a3.557,3.557,0,0,1-5.258.244,3.434,3.434,0,0,1-.88-2.4,3.517,3.517,0,0,1,.929-2.484,3.3,3.3,0,0,1,2.539-1.039,4.192,4.192,0,0,1,1.123.156" transform="translate(-160.793 -116.152)" fill="#231815"/>
    <path id="パス_11" data-name="パス 11" d="M240.637,166.6a1.081,1.081,0,0,0,.594-.158c.1-.077.148-.247.148-.521v-2.194a2.043,2.043,0,0,0-.089-.7.338.338,0,0,0-.338-.207.871.871,0,0,0-.126.013c-.053.01-.112.024-.166.029V162.7c.182-.07.374-.141.573-.208s.335-.115.41-.142c.169-.065.34-.129.513-.206.024,0,.04,0,.042.016a.5.5,0,0,1,.006.108v.832a3.936,3.936,0,0,1,.6-.7.863.863,0,0,1,.6-.246.52.52,0,0,1,.4.157.508.508,0,0,1,.16.386.538.538,0,0,1-.117.345.376.376,0,0,1-.294.14.559.559,0,0,1-.375-.171.475.475,0,0,0-.291-.169c-.113,0-.249.089-.415.27a.864.864,0,0,0-.244.57v2.2a.726.726,0,0,0,.195.57,1,1,0,0,0,.664.148v.171h-2.445Z" transform="translate(-182.482 -122.961)" fill="#231815"/>
    <path id="パス_12" data-name="パス 12" d="M258.467,162.535a.84.84,0,0,1,.8.442,2.18,2.18,0,0,1,.184.738H257.4a2.069,2.069,0,0,1,.224-.671.927.927,0,0,1,.845-.509m.276-.335a1.856,1.856,0,0,0-1.523.72,2.641,2.641,0,0,0-.581,1.7,2.687,2.687,0,0,0,.5,1.613,1.643,1.643,0,0,0,1.432.7,1.848,1.848,0,0,0,1.349-.529,2.674,2.674,0,0,0,.757-1.159l-.164-.05a2.705,2.705,0,0,1-.658.76,1.36,1.36,0,0,1-.867.279,1.452,1.452,0,0,1-1.1-.529,2.712,2.712,0,0,1-.514-1.667h3.1a1.77,1.77,0,0,0-.519-1.36,1.738,1.738,0,0,0-1.218-.478" transform="translate(-194.617 -123.001)" fill="#231815"/>
    <path id="パス_13" data-name="パス 13" d="M279.091,165.519a.528.528,0,0,1-.3.455,1.091,1.091,0,0,1-.621.184.692.692,0,0,1-.426-.133.77.77,0,0,1-.294-.664,1.223,1.223,0,0,1,.7-.992,4.655,4.655,0,0,1,.936-.41Zm-2.512.179a1.011,1.011,0,0,0,.307.758,1.034,1.034,0,0,0,.731.3,1.729,1.729,0,0,0,.849-.265,5.464,5.464,0,0,0,.64-.481.9.9,0,0,0,.163.506.543.543,0,0,0,.484.216,1.016,1.016,0,0,0,.56-.177,1.986,1.986,0,0,0,.345-.3v-.267a1.222,1.222,0,0,1-.259.173.41.41,0,0,1-.182.037.254.254,0,0,1-.265-.2,1.333,1.333,0,0,1-.042-.393v-1.991a2.261,2.261,0,0,0-.177-.993,1.355,1.355,0,0,0-1.3-.618,1.829,1.829,0,0,0-1.254.375,1.054,1.054,0,0,0-.428.725.482.482,0,0,0,.123.318.394.394,0,0,0,.342.145.426.426,0,0,0,.252-.067.392.392,0,0,0,.182-.378,1.214,1.214,0,0,0-.025-.174,1.229,1.229,0,0,1-.026-.2.408.408,0,0,1,.222-.364.97.97,0,0,1,.479-.13.7.7,0,0,1,.687.337,1.791,1.791,0,0,1,.1.7v.414a10.57,10.57,0,0,0-1.8.808,1.4,1.4,0,0,0-.711,1.191" transform="translate(-209.738 -122.85)" fill="#231815"/>
    <path id="パス_14" data-name="パス 14" d="M298.041,158.461v.348h-1.017l-.007,2.829a2.156,2.156,0,0,0,.062.576.451.451,0,0,0,.469.334.58.58,0,0,0,.315-.083,1.558,1.558,0,0,0,.3-.271l.128.11-.1.152a1.6,1.6,0,0,1-.543.486,1.2,1.2,0,0,1-.556.152.778.778,0,0,1-.786-.516,2.146,2.146,0,0,1-.115-.782v-2.986h-.541a.112.112,0,0,1-.035-.032c-.01,0-.01-.011-.01-.037a.1.1,0,0,1,.021-.07c.016-.019.061-.053.137-.126.22-.188.385-.337.484-.442.1-.121.343-.426.711-.929.042,0,.072,0,.08.014s.011.03.011.07v1.2Z" transform="translate(-224.162 -119.188)" fill="#231815"/>
    <path id="パス_15" data-name="パス 15" d="M309.795,153.014a.484.484,0,0,1,.364-.15.5.5,0,0,1,.366.15.514.514,0,0,1,.148.362.519.519,0,0,1-.148.366.553.553,0,0,1-.366.15.53.53,0,0,1-.364-.15.511.511,0,0,1-.153-.366.506.506,0,0,1,.153-.362m-.789,6.581a1.108,1.108,0,0,0,.672-.179,1.155,1.155,0,0,0,.133-.712v-2.358a1.451,1.451,0,0,0-.042-.439.311.311,0,0,0-.315-.208c-.035,0-.067.013-.1.014a2.2,2.2,0,0,0-.3.085v-.136l.211-.07c.586-.182.979-.324,1.209-.418a1.063,1.063,0,0,1,.174-.054.253.253,0,0,1,.016.07v3.529a1.172,1.172,0,0,0,.128.7.928.928,0,0,0,.608.179v.14h-2.39Z" transform="translate(-234.328 -115.921)" fill="#231815"/>
    <path id="パス_16" data-name="パス 16" d="M321.979,162.483a1.216,1.216,0,0,1,1.111.762,3.522,3.522,0,0,1,.38,1.6,2.556,2.556,0,0,1-.3,1.333.926.926,0,0,1-.853.5,1.219,1.219,0,0,1-1.111-.749,3.531,3.531,0,0,1-.4-1.643,1.977,1.977,0,0,1,.5-1.541,1,1,0,0,1,.671-.26m-2.085,2.052a2.453,2.453,0,0,0,.659,1.744,2.118,2.118,0,0,0,1.6.691,2.011,2.011,0,0,0,1.608-.725,2.5,2.5,0,0,0,.621-1.7,2.3,2.3,0,0,0-.64-1.709,2.179,2.179,0,0,0-1.614-.64,2.079,2.079,0,0,0-1.6.679,2.347,2.347,0,0,0-.631,1.656" transform="translate(-242.585 -123.001)" fill="#231815"/>
    <path id="パス_17" data-name="パス 17" d="M341.085,166.635a.779.779,0,0,0,.489-.176c.089-.072.134-.275.134-.573v-2.515a1.07,1.07,0,0,0-.059-.434.377.377,0,0,0-.38-.185h-.1a.644.644,0,0,0-.123.013V162.6c.134-.042.455-.136.955-.291l.465-.148c.026,0,.035,0,.042.022s0,.041,0,.062v.7a4.258,4.258,0,0,1,.707-.567,1.52,1.52,0,0,1,.8-.233,1.05,1.05,0,0,1,.615.192,1.519,1.519,0,0,1,.532,1.336v2.291a.77.77,0,0,0,.139.516.645.645,0,0,0,.481.153v.14h-2.1v-.14a.782.782,0,0,0,.5-.192,1.062,1.062,0,0,0,.14-.661V163.67a1.453,1.453,0,0,0-.158-.711.611.611,0,0,0-.58-.27,1.093,1.093,0,0,0-.586.19,3,3,0,0,0-.426.382v2.772a.588.588,0,0,0,.158.482.827.827,0,0,0,.493.12v.14h-2.138Z" transform="translate(-258.628 -122.961)" fill="#231815"/>
    <path id="パス_18" data-name="パス 18" d="M376.272,162.483a1.2,1.2,0,0,1,1.1.762,3.479,3.479,0,0,1,.38,1.6,2.655,2.655,0,0,1-.3,1.333.945.945,0,0,1-.851.5,1.21,1.21,0,0,1-1.114-.749,3.5,3.5,0,0,1-.4-1.643,2.019,2.019,0,0,1,.5-1.541,1.029,1.029,0,0,1,.682-.26m-2.089,2.052a2.449,2.449,0,0,0,.653,1.744,2.135,2.135,0,0,0,1.6.691,2.026,2.026,0,0,0,1.608-.725,2.527,2.527,0,0,0,.621-1.7,2.306,2.306,0,0,0-.642-1.709,2.187,2.187,0,0,0-1.614-.64,2.106,2.106,0,0,0-1.608.679,2.354,2.354,0,0,0-.621,1.656" transform="translate(-283.754 -123.001)" fill="#231815"/>
    <path id="パス_19" data-name="パス 19" d="M395.5,159.6a1.077,1.077,0,0,0,.693-.188,1.1,1.1,0,0,0,.165-.712v-3.154h-.843v-.348h.843a3.516,3.516,0,0,1,.212-1.3,1.471,1.471,0,0,1,1.485-1.028,1.8,1.8,0,0,1,.773.171c.228.125.343.267.343.463a.446.446,0,0,1-.115.3.383.383,0,0,1-.283.122.317.317,0,0,1-.247-.088,1.252,1.252,0,0,1-.249-.3l-.08-.128a1.022,1.022,0,0,0-.168-.185.433.433,0,0,0-.257-.067.506.506,0,0,0-.5.372,1.583,1.583,0,0,0-.072.517v1.158h1.223v.348H397.2V158.7a1.112,1.112,0,0,0,.152.709,1.28,1.28,0,0,0,.8.192v.14H395.5Z" transform="translate(-299.922 -115.921)" fill="#231815"/>
    <path id="パス_20" data-name="パス 20" d="M424.874,159.99a1.589,1.589,0,0,1-.676-.081.341.341,0,0,1-.152-.335v-2.5c.086,0,.152,0,.193,0h.29a3.469,3.469,0,0,1,1.554.307,1.191,1.191,0,0,1,.607,1.159,1.212,1.212,0,0,1-.517,1.148,2.6,2.6,0,0,1-1.3.3m-2.817.367h3.281a3.974,3.974,0,0,0,1.413-.224,1.622,1.622,0,0,0,1.081-1.627,1.321,1.321,0,0,0-.484-1.1,3.159,3.159,0,0,0-1.188-.56,2.271,2.271,0,0,0,.843-.35,1.27,1.27,0,0,0,.495-1.083,1.41,1.41,0,0,0-.706-1.344,4.054,4.054,0,0,0-1.919-.386h-2.817v.19a1.4,1.4,0,0,1,.786.192,1.017,1.017,0,0,1,.172.712v4.482c0,.382-.054.624-.172.723a1.4,1.4,0,0,1-.786.192Zm2.944-3.7-.955.024v-2.278c0-.16.021-.267.073-.292a.711.711,0,0,1,.39-.059,3.335,3.335,0,0,1,1.23.173,1.2,1.2,0,0,1,.734,1.215,1.072,1.072,0,0,1-.634,1.063,2.1,2.1,0,0,1-.838.155" transform="translate(-320.058 -116.542)" fill="#231815"/>
    <path id="パス_21" data-name="パス 21" d="M450.827,162.535a.827.827,0,0,1,.794.442,2.185,2.185,0,0,1,.195.738h-2.06a1.959,1.959,0,0,1,.224-.671.934.934,0,0,1,.848-.509m.276-.335a1.861,1.861,0,0,0-1.525.72,2.634,2.634,0,0,0-.584,1.7,2.668,2.668,0,0,0,.508,1.613,1.638,1.638,0,0,0,1.429.7,1.858,1.858,0,0,0,1.354-.529,2.775,2.775,0,0,0,.755-1.159l-.171-.05a2.8,2.8,0,0,1-.651.76,1.373,1.373,0,0,1-.864.279,1.428,1.428,0,0,1-1.1-.529,2.616,2.616,0,0,1-.513-1.667h3.091a1.763,1.763,0,0,0-.514-1.36,1.73,1.73,0,0,0-1.215-.478" transform="translate(-340.485 -123.001)" fill="#231815"/>
    <path id="パス_22" data-name="パス 22" d="M472.278,165.519a.54.54,0,0,1-.3.455,1.091,1.091,0,0,1-.621.184.706.706,0,0,1-.425-.133.768.768,0,0,1-.291-.664,1.225,1.225,0,0,1,.7-.992,4.864,4.864,0,0,1,.936-.41Zm-2.513.179a1.044,1.044,0,0,0,.31.758,1.03,1.03,0,0,0,.73.3,1.76,1.76,0,0,0,.853-.265,6.25,6.25,0,0,0,.636-.481.881.881,0,0,0,.172.506.518.518,0,0,0,.478.216,1.049,1.049,0,0,0,.564-.177,1.674,1.674,0,0,0,.335-.3v-.267a.911.911,0,0,1-.254.173.4.4,0,0,1-.181.037.27.27,0,0,1-.273-.2,1.53,1.53,0,0,1-.035-.393v-1.991a2.214,2.214,0,0,0-.179-.993,1.34,1.34,0,0,0-1.29-.618,1.8,1.8,0,0,0-1.25.375,1.016,1.016,0,0,0-.426.725.468.468,0,0,0,.115.318.388.388,0,0,0,.342.145.382.382,0,0,0,.247-.067.393.393,0,0,0,.193-.378,1.418,1.418,0,0,0-.037-.174,1.138,1.138,0,0,1-.022-.2.416.416,0,0,1,.227-.364.953.953,0,0,1,.474-.13.7.7,0,0,1,.687.337,1.8,1.8,0,0,1,.1.7v.414a11.015,11.015,0,0,0-1.8.808,1.4,1.4,0,0,0-.709,1.191" transform="translate(-356.237 -122.85)" fill="#231815"/>
    <path id="パス_23" data-name="パス 23" d="M488.525,162.411v3.149a1.319,1.319,0,0,0,.093.541.688.688,0,0,0,.671.367,1.134,1.134,0,0,0,.655-.217,2.258,2.258,0,0,0,.367-.337v-2.692c0-.257-.051-.423-.15-.488a.96.96,0,0,0-.589-.153v-.169h1.585v3.524a.612.612,0,0,0,.118.444.647.647,0,0,0,.5.109v.139c-.179.046-.307.081-.39.1s-.223.064-.429.126c-.08.032-.263.093-.551.211-.016,0-.022-.009-.024-.024a.173.173,0,0,1-.007-.058v-.81a3.237,3.237,0,0,1-.611.593,1.539,1.539,0,0,1-.889.3,1.273,1.273,0,0,1-.81-.31,1.2,1.2,0,0,1-.386-1v-2.571a.654.654,0,0,0-.163-.519.937.937,0,0,0-.455-.118v-.134Z" transform="translate(-369.353 -123.161)" fill="#231815"/>
    <path id="パス_24" data-name="パス 24" d="M511.129,158.461v.348h-1.016l-.008,2.829a1.869,1.869,0,0,0,.064.576.45.45,0,0,0,.465.334.568.568,0,0,0,.311-.083,1.424,1.424,0,0,0,.3-.271l.128.11-.107.152a1.548,1.548,0,0,1-.545.486,1.158,1.158,0,0,1-.549.152.781.781,0,0,1-.79-.516,2.1,2.1,0,0,1-.12-.782v-2.986h-.532a.146.146,0,0,1-.042-.032c-.008,0-.011-.011-.011-.037a.107.107,0,0,1,.024-.07c.01-.019.064-.053.137-.126a5.11,5.11,0,0,0,.484-.442c.105-.121.337-.426.711-.929.045,0,.078,0,.085.014s.007.03.007.07v1.2Z" transform="translate(-385.747 -119.188)" fill="#231815"/>
    <path id="パス_25" data-name="パス 25" d="M523.579,162.5h2.073v.147a1.1,1.1,0,0,0-.364.043.265.265,0,0,0-.232.267.3.3,0,0,0,.032.136,1.682,1.682,0,0,0,.088.222l1.137,2.454.936-2.48c.006-.018.019-.085.042-.174a.84.84,0,0,0,.03-.2.208.208,0,0,0-.089-.192.453.453,0,0,0-.222-.07l-.152-.009V162.5h1.352v.147a.487.487,0,0,0-.306.132,1.187,1.187,0,0,0-.171.339l-1.546,4.1a6.252,6.252,0,0,1-.774,1.541,1.139,1.139,0,0,1-.933.48.981.981,0,0,1-.514-.137.47.47,0,0,1-.236-.441.425.425,0,0,1,.141-.329.542.542,0,0,1,.367-.129,1.245,1.245,0,0,1,.374.1,1.527,1.527,0,0,0,.351.088c.182,0,.372-.228.572-.664a2.749,2.749,0,0,0,.3-.883c0-.027-.006-.059-.01-.107a.73.73,0,0,1-.036-.11l-1.554-3.353a1.48,1.48,0,0,0-.289-.476.636.636,0,0,0-.369-.153Z" transform="translate(-397.045 -123.232)" fill="#231815"/>
    <path id="パス_26" data-name="パス 26" d="M17.352,21.768,9.418,11.621H9.365V21.768H3.7V2.094H9.365v8.694l7.873-8.694h6.831l-8.526,8.83L24.69,21.768Z" transform="translate(-2.806 -1.588)" fill="#d80c18"/>
    <rect id="長方形_1" data-name="長方形 1" width="5.667" height="19.675" transform="translate(23.744 0.506)" fill="#d80c18"/>
    <path id="パス_27" data-name="パス 27" d="M148.273,21.768l-7.937-10.147h-.048V21.768h-5.665V2.094h5.665v8.694l7.873-8.694h6.824l-8.522,8.83,9.147,10.845Z" transform="translate(-102.089 -1.588)" fill="#d80c18"/>
    <path id="パス_28" data-name="パス 28" d="M237.045,22.284c-6.1,0-10.553-1.973-10.553-8.739V2.094h5.663V13.137c0,3.264,1.541,5.119,4.889,5.119,3.749,0,4.852-2.476,4.852-5.82V2.094h5.667V12.787c0,6.962-3.992,9.5-10.519,9.5" transform="translate(-171.756 -1.588)" fill="#d80c18"/>
    <path id="パス_29" data-name="パス 29" d="M331.392,20.7c-6.524,0-10.573-3.671-10.573-10.339C320.819,2.994,325.408,0,332.314,0c4.535,0,9.767,1.544,9.842,6.958h-5.823c-.268-2.234-2.212-2.938-4.209-2.938-3.749,0-5.473,2.724-5.473,6.2,0,3.45,1.479,6.443,5.31,6.443,2.076,0,4.158-.783,4.316-3.147h5.991c-.241,6.176-5.8,7.175-10.875,7.175" transform="translate(-243.286 0)" fill="#d80c18"/>
    <path id="パス_30" data-name="パス 30" d="M433.3,21.768V13.946h-9.577v7.822H418.06V2.094h5.667V9.927H433.3V2.094h5.668V21.768Z" transform="translate(-317.027 -1.588)" fill="#d80c18"/>
    <rect id="長方形_2" data-name="長方形 2" width="5.662" height="19.675" transform="translate(125.145 0.506)" fill="#d80c18"/>
    <path id="パス_31" data-name="パス 31" d="M3.7,96.024v11H6.427v-4.132l2.295-.01a6.483,6.483,0,0,0,2.781-.458,3.528,3.528,0,0,0,.106-5.849,5.373,5.373,0,0,0-2.872-.551Zm2.727,4.913V97.689H8.059c.736,0,2.276,0,2.276,1.705,0,1.772-1.531,1.772-2.26,1.772H6.427Z" transform="translate(-2.806 -72.818)" fill="#888"/>
    <path id="パス_32" data-name="パス 32" d="M89.011,102.548c4.717,0,4.865-2.173,4.865-3.368a3.235,3.235,0,0,0-.723-2.4c-.6-.6-1.258-.755-3.367-.755H84.714v11h2.735v-4.475Zm-1.561-1.835V97.678H88.87c.888,0,2.387,0,2.387,1.637a1.54,1.54,0,0,1-1.006,1.52,4.418,4.418,0,0,1-1.381.107H87.449Z" transform="translate(-64.241 -72.818)" fill="#888"/>
    <path id="パス_33" data-name="パス 33" d="M161.256,96.218h0a6.512,6.512,0,0,0-1.507,4.346c0,5.306,4.329,5.716,5.659,5.716s5.738-.411,5.738-5.729c0-1.755-.544-5.855-5.582-5.855a6.167,6.167,0,0,0-4.308,1.522m1.306,4.333c0-3.313,1.57-4.012,2.888-4.012a2.433,2.433,0,0,1,2.093.929,4.923,4.923,0,0,1,.771,3.034c0,3.235-1.563,3.91-2.876,3.91-1.884,0-2.877-1.332-2.877-3.861" transform="translate(-121.142 -71.811)" fill="#888"/>
    <path id="パス_34" data-name="パス 34" d="M248.995,96.024v11h4.64a9.409,9.409,0,0,0,3.28-.434c2.034-.789,2.983-2.413,2.983-5.094a5.136,5.136,0,0,0-2.058-4.558,7.727,7.727,0,0,0-4.236-.914Zm2.793,9.023V97.729l1.483.024c.94,0,3.8,0,3.8,3.7,0,2.548-1.21,3.8-3.692,3.815h-1.6Z" transform="translate(-188.82 -72.818)" fill="#888"/>
    <path id="パス_35" data-name="パス 35" d="M344.01,96.025v6.47c0,2.486-1.368,3.007-2.515,3.007a2.506,2.506,0,0,1-2.141-1.044,3.279,3.279,0,0,1-.409-1.854V96.025h-2.74c-.013.423-.019,6.294-.019,6.294,0,1.867,0,5,5.193,5,1.443,0,3.387-.262,4.428-1.541a5.243,5.243,0,0,0,.837-3.353v-6.4Z" transform="translate(-254.94 -72.819)" fill="#888"/>
    <path id="パス_36" data-name="パス 36" d="M422.926,96.643h0a7,7,0,0,0,.022,8.4,5.763,5.763,0,0,0,4.18,1.447c1.79,0,4.734-.461,4.905-3.414h-2.877a1.91,1.91,0,0,1-2.087,1.651c-1.009,0-2.7-.493-2.7-3.813,0-3.377,1.483-4.083,2.733-4.083a1.892,1.892,0,0,1,2.023,1.587h2.853a3.1,3.1,0,0,0-.873-2.056,5.332,5.332,0,0,0-4-1.325,5.1,5.1,0,0,0-4.177,1.6" transform="translate(-319.662 -72.072)" fill="#888"/>
    <path id="パス_37" data-name="パス 37" d="M507.048,96.144v10.971h8.268v-1.76h-5.581v-2.908h5.138V100.72h-5.138V97.87h5.455V96.144Z" transform="translate(-384.51 -72.909)" fill="#888"/>
    <path id="パス_38" data-name="パス 38" d="M92.722,119.122h3.117l4.8,5.418H97.532Z" transform="translate(-70.314 -90.334)" fill="#888"/>
  </g>
</svg>
